# xmcd
#
# Track frame offsets: 
#        183
#        12110
#        24893
#        38268
#        51770
#        67818
#        81690
#        93570
#        105148
#        116048
#        128385
#        139280
#        152150
#        164505
#        176968
#        188600
#        198820
#        209858
#        221028
#        234415
#        247555
#        265863
#        275363
#        285400
#        298873
#
# Disc length: 4139 seconds
#
# Revision: 2
# Processed by: cddbd v1.5.2PL0 Copyright (c) Steve Scherf et al.
# Submitted via: ExactAudioCopyFreeDBPlugin 1.0
#
DISCID=5b102919
DTITLE=Howlin' Wolf - Howlin' Wolf:  The Complete Recordings, 1951-196
DTITLE=9 [Charly box set]
DYEAR=1993
DGENRE=Blues
TTITLE0=I Didn't Know
TTITLE1=Moaning for My Baby
TTITLE2=I'm Leaving You
TTITLE3=Can't Put Me Out
TTITLE4=Change My Way
TTITLE5=Getting Late
TTITLE6=I've Been Abused
TTITLE7=Howlin' for My Darling
TTITLE8=My People's Gone
TTITLE9=Mr. Airplane Man
TTITLE10=Wang Dang Doodle
TTITLE11=Back Door Man
TTITLE12=Spoonful
TTITLE13=Little Baby
TTITLE14=Down in the Bottom
TTITLE15=Shake for Me
TTITLE16=Red Rooster
TTITLE17=You'll Be Mine
TTITLE18=Just Like I Treat You
TTITLE19=I Ain't Superstitious
TTITLE20=Goin' Down Slow
TTITLE21=Mama's Baby
TTITLE22=Do the Do
TTITLE23=Tail Dragger
TTITLE24=Long Green Stuff
EXTD=
EXTT0=
EXTT1=
EXTT2=
EXTT3=
EXTT4=
EXTT5=
EXTT6=
EXTT7=
EXTT8=
EXTT9=
EXTT10=
EXTT11=
EXTT12=
EXTT13=
EXTT14=
EXTT15=
EXTT16=
EXTT17=
EXTT18=
EXTT19=
EXTT20=
EXTT21=
EXTT22=
EXTT23=
EXTT24=
PLAYORDER=
